# Blender v2.78 (sub 0) OBJ File: 'fire.blend'
# www.blender.org
mtllib fire.mtl
o Mesh_Cube
v 0.277027 -0.121643 -0.277027
v 0.277027 -0.121643 0.277027
v -0.277027 -0.121643 0.277027
v -0.277027 -0.121643 -0.277027
v 0.241261 0.131526 -0.241261
v 0.241261 0.131526 0.241262
v -0.241261 0.131526 0.241261
v -0.241261 0.131526 -0.241261
v 0.154291 -0.430353 -0.154291
v 0.154291 -0.430353 0.154291
v -0.154291 -0.430353 -0.154291
v -0.154291 -0.430353 0.154291
v 0.036583 0.627040 -0.036583
v 0.036583 0.627040 0.036583
v -0.036583 0.627040 -0.036583
v -0.036583 0.627040 0.036583
vn -0.9293 -0.3694 -0.0000
vn -0.0000 0.3818 0.9243
vn 0.9902 0.1399 0.0000
vn -0.0000 0.1399 0.9902
vn -0.9902 0.1399 -0.0000
vn 0.0000 0.1399 -0.9902
vn 0.0000 -1.0000 0.0000
vn -0.0000 -0.3694 0.9293
vn 0.0000 -0.3694 -0.9293
vn 0.9293 -0.3694 0.0000
vn 0.0000 1.0000 0.0000
vn 0.9243 0.3818 0.0000
vn -0.9243 0.3818 -0.0000
vn 0.0000 0.3818 -0.9243
usemtl Material
s off
f 3//1 4//1 11//1 12//1
f 7//2 6//2 14//2 16//2
f 1//3 5//3 6//3 2//3
f 2//4 6//4 7//4 3//4
f 3//5 7//5 8//5 4//5
f 5//6 1//6 4//6 8//6
f 9//7 10//7 12//7 11//7
f 2//8 3//8 12//8 10//8
f 4//9 1//9 9//9 11//9
f 1//10 2//10 10//10 9//10
f 13//11 15//11 16//11 14//11
f 6//12 5//12 13//12 14//12
f 8//13 7//13 16//13 15//13
f 5//14 8//14 15//14 13//14
