# Blender v2.78 (sub 0) OBJ File: 'island.blend'
# www.blender.org
mtllib island-low.mtl
o Mesh_Cube
v 0.165515 -0.006309 -1.150195
v 1.214553 -0.006309 -0.031222
v 0.352011 -0.006309 1.134375
v -0.697026 -0.006309 0.901255
v -0.678177 -0.006309 -0.816156
v -1.172701 -0.006309 0.052143
v -0.939042 -0.648867 0.052143
v -0.927865 -1.118280 0.052143
v -0.581393 -1.509458 0.052142
v -0.413746 -1.956519 0.052142
v -0.033744 -2.135344 0.052142
v 0.268022 -1.230046 0.052142
v 0.972142 -0.950633 -0.221207
v 1.184497 -0.425336 0.052142
v -0.517074 -0.588640 0.901256
v -0.431841 -0.986393 0.901256
v -0.185613 -1.223150 0.517409
v 0.079555 -0.531819 0.901256
v 0.600422 -0.276121 0.901256
v -0.771158 -0.650792 -0.595357
v -0.563757 -0.989743 -0.104335
v -0.535256 -1.511211 -0.105053
v -0.209745 -1.711266 -0.102786
v 0.118697 -1.083344 -0.100499
v 0.582380 -0.426441 -0.624298
v 0.017354 -0.532101 -0.955230
vn 0.0000 1.0000 0.0000
vn 0.4970 -0.5591 0.6636
vn -0.0000 0.0000 1.0000
vn -0.2066 -0.3053 0.9296
vn 0.8270 0.0520 0.5597
vn 0.2435 -0.4960 0.8335
vn 0.7840 0.2206 0.5802
vn -0.8424 -0.2603 0.4719
vn -0.8435 -0.3067 0.4409
vn -0.8619 -0.0205 0.5067
vn -0.8743 -0.1873 0.4478
vn 0.6948 -0.2316 0.6809
vn -0.2222 -0.4721 0.8531
vn -0.6579 -0.2467 0.7115
vn -0.6586 -0.5833 0.4753
vn -0.0008 -0.8514 0.5246
vn 0.5926 -0.5527 0.5860
vn 0.4828 -0.5499 0.6816
vn 0.3381 -0.6887 0.6414
vn 0.5693 -0.6484 0.5055
vn -0.1910 -0.4058 -0.8938
vn -0.2264 -0.3786 -0.8974
vn -0.9038 -0.3389 -0.2615
vn -0.7323 -0.6486 -0.2077
vn -0.3888 -0.0200 -0.9211
vn -0.3920 -0.0093 -0.9199
vn -0.7014 -0.6897 -0.1798
vn -0.9133 -0.3321 -0.2358
vn -0.8681 -0.0441 -0.4944
vn 0.0057 0.0007 -1.0000
vn 0.0081 0.0018 -1.0000
vn 0.4423 -0.7289 -0.5225
vn -0.1147 -0.8410 -0.5288
vn -0.1121 -0.8393 -0.5320
vn -0.3579 -0.2343 -0.9039
vn -0.3699 -0.2529 -0.8940
vn 0.4341 -0.1447 -0.8892
vn 0.5387 -0.2789 -0.7950
vn 0.0123 -0.7149 -0.6991
vn -0.0154 -0.6167 -0.7871
vn 0.7462 0.0440 -0.6643
vn 0.7345 -0.1827 -0.6535
vn 0.5157 -0.4218 -0.7458
vn 0.7232 -0.1311 -0.6780
usemtl None
s off
f 4//1 1//1 5//1
f 4//1 3//1 1//1
f 1//1 3//1 2//1
f 5//1 6//1 4//1
f 17//2 18//2 16//2
f 16//3 18//3 15//3
f 15//3 18//3 4//3
f 4//4 18//4 3//4
f 2//5 19//5 14//5
f 18//6 19//6 3//6
f 2//7 3//7 19//7
f 6//8 15//8 4//8
f 7//9 15//9 6//9
f 7//10 8//10 16//10
f 15//11 7//11 16//11
f 17//12 11//12 12//12
f 11//13 17//13 10//13
f 10//14 17//14 9//14
f 9//15 16//15 8//15
f 16//16 9//16 17//16
f 18//17 17//17 12//17
f 13//18 14//18 12//18
f 19//19 18//19 12//19
f 14//20 19//20 12//20
f 23//21 11//21 10//21
f 23//22 10//22 22//22
f 10//23 9//23 22//23
f 9//24 8//24 22//24
f 22//25 8//25 21//25
f 8//26 7//26 21//26
f 21//27 7//27 20//27
f 7//28 6//28 20//28
f 6//29 5//29 20//29
f 21//30 24//30 23//30
f 21//31 23//31 22//31
f 25//32 24//32 26//32
f 26//33 24//33 20//33
f 20//34 24//34 21//34
f 26//35 5//35 1//35
f 5//36 26//36 20//36
f 12//37 11//37 23//37
f 23//38 24//38 12//38
f 12//39 24//39 13//39
f 24//40 25//40 13//40
f 13//41 25//41 14//41
f 14//42 25//42 2//42
f 26//43 1//43 25//43
f 1//44 2//44 25//44
