# Blender v2.78 (sub 0) OBJ File: 'island.blend'
# www.blender.org
mtllib island.mtl
o Mesh_Cube
v -0.403229 -0.006309 -0.355032
v -0.059833 -0.006309 0.295145
v 0.577360 -0.006309 -0.015681
v -0.849301 -0.006309 0.045747
v -0.179300 -0.913787 0.773307
v -0.289786 -0.702284 0.901256
v -0.378182 -0.375589 0.901255
v -0.088487 -0.181479 0.978962
v 0.999824 -0.235922 0.307392
v 0.343996 -0.271416 0.978962
v 0.722329 -0.096246 0.668136
v -0.795600 -0.200419 0.618218
v -0.876272 -0.414605 0.335180
v -0.766249 -0.917847 0.335180
v -0.629319 -0.741300 0.618218
v 0.016222 -1.529513 0.207231
v -0.211034 -1.771671 0.207231
v -0.393584 -1.563043 0.207231
v -0.647033 -1.204710 0.335180
v -0.399616 -1.239667 0.490269
v 0.053988 -0.995005 0.490269
v 0.808220 -0.868672 -0.038974
v 0.316000 -0.679328 0.618218
v 0.684313 -0.643834 0.335180
v -0.219078 -1.934376 0.000499
v -0.386249 -1.726332 -0.051899
v -0.510132 -1.659063 -0.000257
v -0.681505 -1.379650 -0.000256
v -0.675626 -1.206411 -0.052415
v -0.810221 -0.918963 -0.000017
v -0.757985 -0.763134 -0.215850
v -0.960967 -0.435322 -0.163690
v -0.874012 -0.221136 -0.453123
v -0.218268 -1.261451 -0.102540
v -0.436253 -1.404073 -0.104058
v 0.239477 -0.680629 -0.560009
v -0.211702 -0.755412 -0.550362
v -0.405406 -0.907960 -0.266730
v -0.165103 -0.181573 -0.973861
v -0.477327 -0.396400 -0.788914
v 0.008178 -1.692218 0.000499
v 0.058991 -1.341552 -0.050381
v 0.452954 -1.088008 -0.089855
v 0.557740 -0.820139 -0.315335
v 0.913006 -0.600803 -0.264454
v 0.993810 -0.286029 -0.201126
v 0.255083 -0.321617 -0.909908
v 0.654149 -0.146353 -0.601905
v 0.652894 -0.041320 -0.449751
v 0.716563 -0.028793 0.438902
v -0.123334 -0.050101 0.827434
v -0.656933 -0.006309 -0.056047
v -0.270248 -0.050125 -0.823811
v -0.248643 -0.006309 -0.077207
v 0.258763 -0.006309 0.065911
v -0.893548 -0.060016 -0.292848
v -0.878657 -0.054836 0.404341
v -0.987246 -0.376276 0.068944
v -0.860845 -0.900989 0.109862
v -0.709449 -1.303025 0.109802
v -0.474714 -1.672021 0.077815
v -0.219401 -1.949477 0.078003
v 0.064669 -1.646780 0.078003
v 0.625335 -1.034339 -0.074473
v 0.969466 -0.711361 -0.118123
v -0.596970 -0.292739 0.830496
v -0.467005 -0.754654 0.830496
v -0.299092 -1.090749 0.670560
v -0.057842 -0.915940 0.670560
v 0.334993 -0.439671 0.849923
v -0.205343 -0.783571 0.869268
v -0.276372 -0.549583 0.901256
v -0.271035 -0.273799 0.920682
v 0.171769 -0.247755 0.998389
v 1.098171 -0.238399 0.031796
v 0.867264 -0.395303 0.398993
v 0.884282 -0.153649 0.461390
v 0.504689 -0.162523 0.920682
v -0.840412 -0.302493 0.476699
v -0.740427 -0.598353 0.476699
v -0.693247 -1.056808 0.405940
v -0.691613 -0.823601 0.476699
v 0.038155 -1.244428 0.316763
v -0.103543 -1.664919 0.246003
v -0.300994 -1.628595 0.246003
v -0.390052 -1.383829 0.316763
v -0.514971 -1.235057 0.444712
v 0.179391 -0.859049 0.515471
v 0.736263 -0.791972 0.100123
v 0.467189 -0.707332 0.476699
v -0.700168 -0.318659 -0.663388
v -0.624576 -0.827907 -0.295568
v -0.552723 -1.277859 -0.091465
v -0.391876 -1.588220 -0.090949
v -0.062582 -1.349403 -0.089052
v 0.374573 -0.752638 -0.400035
v 0.273573 -0.490197 -0.762361
v -0.307205 -1.832123 -0.025511
v -0.113598 -1.868301 -0.012412
v -0.461345 -1.713281 -0.026267
v -0.577071 -1.514845 -0.013356
v -0.705063 -1.303888 -0.026395
v -0.744367 -1.058349 -0.026156
v -0.767751 -0.830177 -0.067015
v -0.857288 -0.624529 -0.230689
v -0.944709 -0.328390 -0.290007
v -0.267184 -1.060624 -0.143526
v -0.357006 -1.341633 -0.103430
v 0.040956 -0.762872 -0.541525
v -0.360708 -0.583676 -0.722466
v -0.317392 -0.849377 -0.378237
v 0.068212 -0.260400 -0.997298
v -0.325813 -0.279096 -0.883540
v 0.031361 -1.493770 -0.025131
v 0.224666 -1.185737 -0.047148
v 0.525383 -0.985531 -0.181724
v 0.756317 -0.699504 -0.356323
v 0.918423 -0.434652 -0.259434
v 0.861223 -0.216283 -0.364638
v 0.414282 -0.225180 -0.821576
v 0.156164 -0.050101 -0.848811
v 1.002024 -0.080240 0.000070
v 0.325542 -0.059330 0.857740
v -0.585392 -0.057598 0.698253
v -0.615986 -0.084327 -0.660597
v -1.021966 -0.130934 0.064304
v -0.881178 -0.669559 0.093543
v -0.821996 -1.121898 0.087839
v -0.553884 -1.459342 0.129288
v -0.378881 -1.843708 0.062351
v -0.076047 -1.883219 0.084469
v 0.277971 -1.190896 0.093355
v 0.791416 -0.884241 -0.193674
v 1.032166 -0.476194 0.039873
v -0.555453 -0.537740 0.788041
v -0.454081 -0.972590 0.765553
v -0.185589 -1.269941 0.466790
v 0.039828 -0.552031 0.867247
v 0.606857 -0.330735 0.741417
v -0.705911 -0.621251 -0.516644
v -0.558286 -1.026099 -0.112363
v -0.536604 -1.493158 -0.073415
v -0.205177 -1.648239 -0.081339
v 0.100478 -1.046188 -0.163342
v 0.590643 -0.447061 -0.562280
v -0.027280 -0.499614 -0.855920
vn 0.0025 0.9988 0.0491
vn 0.0258 0.9979 -0.0593
vn -0.1615 0.9773 -0.1371
vn -0.0545 0.9970 0.0558
vn 0.0309 0.9969 0.0728
vn 0.0102 0.9993 -0.0363
vn 0.0121 0.9982 -0.0586
vn -0.0003 0.9982 0.0605
vn 0.1724 0.9847 -0.0262
vn -0.0863 0.9867 -0.1375
vn -0.5848 0.8112 0.0065
vn -0.0301 0.9954 0.0904
vn 0.4299 -0.5933 0.6806
vn 0.5095 -0.4920 0.7059
vn 0.0969 -0.5613 0.8219
vn -0.1753 -0.3546 0.9185
vn 0.1433 -0.0912 0.9855
vn -0.3761 0.0300 0.9261
vn -0.3746 -0.2194 0.9008
vn 0.0510 -0.0712 0.9962
vn -0.2666 0.3892 0.8817
vn -0.3113 0.5334 0.7865
vn -0.1442 -0.3311 0.9325
vn 0.0194 0.6704 0.7417
vn 0.7867 0.5485 0.2835
vn 0.7469 -0.2151 0.6292
vn 0.8565 -0.3282 0.3983
vn 0.1636 -0.5128 0.8428
vn 0.5183 -0.4953 0.6972
vn 0.0735 0.4997 0.8631
vn 0.5560 0.7922 0.2517
vn 0.2561 0.8965 0.3615
vn 0.7601 -0.1791 0.6247
vn -0.9266 -0.0337 0.3745
vn -0.7864 -0.2835 0.5489
vn -0.5794 0.4861 0.6543
vn -0.8775 -0.3209 0.3564
vn -0.8180 -0.2765 0.5044
vn -0.9244 -0.1338 0.3571
vn -0.9071 -0.0105 0.4207
vn -0.8939 -0.2254 0.3874
vn -0.8082 -0.1658 0.5651
vn -0.8145 -0.1678 0.5554
vn -0.8945 -0.1938 0.4029
vn -0.7947 -0.2497 0.5532
vn 0.5669 -0.3188 0.7596
vn 0.6706 -0.3932 0.6290
vn 0.7011 -0.3292 0.6326
vn 0.2481 -0.5654 0.7866
vn -0.0836 -0.4545 0.8868
vn -0.4314 -0.5021 0.7495
vn -0.5858 -0.3958 0.7072
vn -0.4463 -0.3946 0.8032
vn -0.5971 -0.4007 0.6949
vn -0.6187 -0.6183 0.4847
vn -0.6409 -0.5178 0.5666
vn -0.7947 -0.4447 0.4132
vn -0.2074 -0.7223 0.6597
vn -0.2976 -0.7538 0.5859
vn -0.0376 -0.7648 0.6432
vn 0.5491 -0.5314 0.6450
vn 0.5487 -0.5332 0.6439
vn 0.6001 -0.5292 0.5998
vn 0.6843 -0.7292 -0.0009
vn 0.6785 -0.4960 0.5418
vn 0.5287 -0.6420 0.5553
vn 0.4834 -0.6213 0.6168
vn 0.3116 -0.6604 0.6832
vn 0.4314 -0.6615 0.6135
vn 0.6729 -0.5739 0.4668
vn 0.5725 -0.5930 0.5662
vn 0.5472 -0.6432 0.5356
vn 0.0135 -0.2756 -0.9612
vn 0.4504 -0.8588 -0.2440
vn -0.5623 -0.7423 -0.3646
vn -0.0392 -0.2716 -0.9616
vn -0.4804 -0.6270 -0.6132
vn -0.3195 -0.2893 -0.9024
vn -0.8275 -0.5503 0.1119
vn -0.8692 -0.3887 0.3057
vn -0.7106 -0.3757 -0.5949
vn -0.7117 -0.6279 0.3149
vn -0.8814 -0.4717 -0.0254
vn -0.6534 -0.4348 -0.6197
vn -0.3737 -0.1138 -0.9205
vn -0.7210 -0.1148 -0.6833
vn -0.3814 -0.0585 -0.9226
vn -0.8386 -0.1747 -0.5160
vn -0.8719 -0.0660 -0.4853
vn -0.4693 -0.2020 -0.8596
vn -0.6422 -0.6485 -0.4087
vn -0.8410 -0.5099 -0.1806
vn -0.6623 -0.6269 -0.4104
vn -0.9170 -0.3922 -0.0727
vn -0.9864 -0.1001 -0.1302
vn -0.8387 -0.3338 -0.4303
vn -0.9380 0.1757 -0.2988
vn -0.6933 0.3687 -0.6192
vn -0.8061 -0.2538 -0.5346
vn -0.0567 -0.1232 -0.9908
vn -0.0418 -0.2137 -0.9760
vn 0.0473 -0.0531 -0.9975
vn -0.0760 -0.0464 -0.9960
vn 0.0389 -0.0560 -0.9977
vn -0.2026 -0.1066 -0.9734
vn 0.4386 -0.6653 -0.6042
vn 0.2763 -0.7530 -0.5971
vn 0.2306 -0.7236 -0.6505
vn -0.0409 -0.7538 -0.6558
vn -0.0606 -0.8209 -0.5679
vn -0.2511 -0.7813 -0.5715
vn -0.2177 -0.7609 -0.6112
vn -0.0699 -0.7489 -0.6590
vn -0.1605 -0.7007 -0.6952
vn -0.2324 -0.4251 -0.8748
vn -0.4898 0.3294 -0.8072
vn 0.0234 0.6584 -0.7523
vn -0.5127 0.1217 -0.8499
vn -0.2293 -0.4344 -0.8711
vn -0.4756 -0.4393 -0.7621
vn 0.7227 -0.2712 -0.6357
vn 0.7954 -0.5008 -0.3413
vn 0.3252 -0.1575 -0.9324
vn 0.3320 -0.1928 -0.9234
vn 0.3406 -0.3772 -0.8612
vn 0.6871 -0.4708 -0.5534
vn 0.3347 -0.9213 -0.1978
vn 0.0835 -0.6393 -0.7644
vn 0.2716 -0.7551 -0.5967
vn 0.0745 -0.6559 -0.7512
vn 0.1704 -0.5543 -0.8147
vn 0.2158 -0.6297 -0.7462
vn 0.6598 -0.4359 -0.6121
vn 0.6433 -0.1169 -0.7566
vn 0.9328 -0.0120 -0.3603
vn 0.8898 -0.2786 -0.3614
vn 0.6931 -0.1574 -0.7035
vn 0.7930 0.4094 -0.4511
vn 0.2246 -0.5912 -0.7746
vn 0.3987 0.3372 -0.8528
vn 0.5553 -0.4510 -0.6988
vn 0.4300 0.6687 -0.6066
vn 0.6745 0.5824 -0.4537
vn 0.6969 -0.2364 -0.6771
usemtl None
s off
f 1//1 52//1 124//1 54//1
f 1//2 54//2 121//2 53//2
f 1//3 53//3 125//3 52//3
f 2//4 54//4 124//4 51//4
f 2//5 51//5 123//5 55//5
f 2//6 55//6 121//6 54//6
f 3//7 49//7 121//7 55//7
f 3//8 55//8 123//8 50//8
f 3//9 50//9 122//9 49//9
f 4//10 52//10 125//10 56//10
f 4//11 56//11 126//11 57//11
f 4//12 57//12 124//12 52//12
f 5//13 68//13 137//13 69//13
f 5//14 69//14 138//14 71//14
f 5//15 71//15 136//15 68//15
f 6//16 67//16 136//16 71//16
f 6//17 71//17 138//17 72//17
f 6//18 72//18 135//18 67//18
f 7//19 66//19 135//19 72//19
f 7//20 72//20 138//20 73//20
f 7//21 73//21 124//21 66//21
f 8//22 51//22 124//22 73//22
f 8//23 73//23 138//23 74//23
f 8//24 74//24 123//24 51//24
f 9//25 75//25 122//25 77//25
f 9//26 77//26 139//26 76//26
f 9//27 76//27 134//27 75//27
f 10//28 74//28 138//28 70//28
f 10//29 70//29 139//29 78//29
f 10//30 78//30 123//30 74//30
f 11//31 77//31 122//31 50//31
f 11//32 50//32 123//32 78//32
f 11//33 78//33 139//33 77//33
f 12//34 57//34 126//34 79//34
f 12//35 79//35 135//35 66//35
f 12//36 66//36 124//36 57//36
f 13//37 58//37 127//37 80//37
f 13//38 80//38 135//38 79//38
f 13//39 79//39 126//39 58//39
f 14//40 82//40 127//40 59//40
f 14//41 59//41 128//41 81//41
f 14//42 81//42 136//42 82//42
f 15//43 67//43 135//43 80//43
f 15//44 80//44 127//44 82//44
f 15//45 82//45 136//45 67//45
f 16//46 83//46 137//46 84//46
f 16//47 84//47 131//47 63//47
f 16//48 63//48 132//48 83//48
f 17//49 62//49 131//49 84//49
f 17//50 84//50 137//50 85//50
f 17//51 85//51 130//51 62//51
f 18//52 61//52 130//52 85//52
f 18//53 85//53 137//53 86//53
f 18//54 86//54 129//54 61//54
f 19//55 60//55 129//55 87//55
f 19//56 87//56 136//56 81//56
f 19//57 81//57 128//57 60//57
f 20//58 68//58 136//58 87//58
f 20//59 87//59 129//59 86//59
f 20//60 86//60 137//60 68//60
f 21//61 88//61 138//61 69//61
f 21//62 69//62 137//62 83//62
f 21//63 83//63 132//63 88//63
f 22//64 64//64 133//64 65//64
f 22//65 65//65 134//65 89//65
f 22//66 89//66 132//66 64//66
f 23//67 90//67 139//67 70//67
f 23//68 70//68 138//68 88//68
f 23//69 88//69 132//69 90//69
f 24//70 89//70 134//70 76//70
f 24//71 76//71 139//71 90//71
f 24//72 90//72 132//72 89//72
f 25//73 98//73 143//73 99//73
f 25//74 99//74 131//74 62//74
f 25//75 62//75 130//75 98//75
f 26//76 94//76 143//76 98//76
f 26//77 98//77 130//77 100//77
f 26//78 100//78 142//78 94//78
f 27//79 100//79 130//79 61//79
f 27//80 61//80 129//80 101//80
f 27//81 101//81 142//81 100//81
f 28//82 101//82 129//82 60//82
f 28//83 60//83 128//83 102//83
f 28//84 102//84 142//84 101//84
f 29//85 93//85 142//85 102//85
f 29//86 102//86 128//86 103//86
f 29//87 103//87 141//87 93//87
f 30//88 103//88 128//88 59//88
f 30//89 59//89 127//89 104//89
f 30//90 104//90 141//90 103//90
f 31//91 92//91 141//91 104//91
f 31//92 104//92 127//92 105//92
f 31//93 105//93 140//93 92//93
f 32//94 105//94 127//94 58//94
f 32//95 58//95 126//95 106//95
f 32//96 106//96 140//96 105//96
f 33//97 106//97 126//97 56//97
f 33//98 56//98 125//98 91//98
f 33//99 91//99 140//99 106//99
f 34//100 108//100 141//100 107//100
f 34//101 107//101 144//101 95//101
f 34//102 95//102 143//102 108//102
f 35//103 93//103 141//103 108//103
f 35//104 108//104 143//104 94//104
f 35//105 94//105 142//105 93//105
f 36//106 97//106 145//106 96//106
f 36//107 96//107 144//107 109//107
f 36//108 109//108 146//108 97//108
f 37//109 110//109 146//109 109//109
f 37//110 109//110 144//110 111//110
f 37//111 111//111 140//111 110//111
f 38//112 92//112 140//112 111//112
f 38//113 111//113 144//113 107//113
f 38//114 107//114 141//114 92//114
f 39//115 112//115 146//115 113//115
f 39//116 113//116 125//116 53//116
f 39//117 53//117 121//117 112//117
f 40//118 91//118 125//118 113//118
f 40//119 113//119 146//119 110//119
f 40//120 110//120 140//120 91//120
f 41//121 114//121 132//121 63//121
f 41//122 63//122 131//122 99//122
f 41//123 99//123 143//123 114//123
f 42//124 114//124 143//124 95//124
f 42//125 95//125 144//125 115//125
f 42//126 115//126 132//126 114//126
f 43//127 64//127 132//127 115//127
f 43//128 115//128 144//128 116//128
f 43//129 116//129 133//129 64//129
f 44//130 116//130 144//130 96//130
f 44//131 96//131 145//131 117//131
f 44//132 117//132 133//132 116//132
f 45//133 65//133 133//133 117//133
f 45//134 117//134 145//134 118//134
f 45//135 118//135 134//135 65//135
f 46//136 75//136 134//136 118//136
f 46//137 118//137 145//137 119//137
f 46//138 119//138 122//138 75//138
f 47//139 97//139 146//139 112//139
f 47//140 112//140 121//140 120//140
f 47//141 120//141 145//141 97//141
f 48//142 120//142 121//142 49//142
f 48//143 49//143 122//143 119//143
f 48//144 119//144 145//144 120//144
