# Blender v2.78 (sub 0) OBJ File: 'mush.blend'
# www.blender.org
mtllib mush.mtl
o Mesh_Cube
v -0.000000 0.001162 0.000000
v -0.000000 0.349962 0.223454
v 0.118638 0.235455 0.000000
v -0.000000 0.235455 0.118638
v -0.118638 0.235455 0.000000
v 0.000000 0.235455 -0.118638
v -0.000000 0.407501 0.249501
v 0.223454 0.349962 0.000000
v -0.223454 0.349962 -0.000000
v 0.000000 0.349962 -0.223454
v 0.000000 0.645127 -0.132045
v 0.249501 0.407501 0.000000
v -0.249501 0.407501 -0.000000
v 0.000000 0.407501 -0.249501
v 0.132045 0.645127 0.000000
v -0.132045 0.645127 -0.000000
v -0.000000 0.645127 0.132045
v 0.075310 0.059735 0.000000
v -0.000000 0.059735 -0.075310
v 0.088978 0.235455 -0.088978
v -0.000000 0.059735 0.075310
v 0.088978 0.235455 0.088978
v -0.075310 0.059735 0.000000
v -0.088978 0.235455 0.088978
v -0.088978 0.235455 -0.088978
v 0.158510 0.381228 0.000000
v 0.000000 0.381228 -0.158510
v -0.000000 0.381228 0.158510
v -0.158510 0.381228 -0.000000
v 0.268706 0.304454 0.000000
v 0.000000 0.304454 -0.268706
v -0.000000 0.304454 0.268706
v -0.268706 0.304454 -0.000000
v 0.167591 0.349962 0.167591
v -0.167591 0.349962 0.167591
v 0.167591 0.349962 -0.167591
v -0.167591 0.349962 -0.167591
v 0.194420 0.555570 0.000000
v 0.000000 0.555570 -0.194420
v -0.000000 0.555570 0.194420
v -0.194420 0.555570 -0.000000
v 0.187126 0.407501 0.187126
v -0.187126 0.407501 0.187126
v 0.187126 0.407501 -0.187126
v -0.187126 0.407501 -0.187126
v 0.082528 0.660203 -0.082528
v 0.082528 0.660203 0.082528
v -0.082528 0.660203 -0.082528
v -0.082528 0.660203 0.082528
v 0.059835 0.105292 -0.059835
v 0.059835 0.105292 0.059835
v -0.059835 0.105292 0.059835
v -0.059835 0.105292 -0.059835
v 0.118883 0.381228 -0.118883
v 0.118883 0.381228 0.118883
v -0.118883 0.381228 0.118883
v -0.118883 0.381228 -0.118883
v 0.201529 0.304454 -0.201529
v 0.201529 0.304454 0.201529
v -0.201529 0.304454 -0.201529
v -0.201529 0.304454 0.201529
v 0.141689 0.559339 -0.141689
v 0.141689 0.559339 0.141689
v -0.141689 0.559339 -0.141689
v -0.141689 0.559339 0.141689
v -0.000000 0.690354 0.000000
vn 0.5488 -0.6307 -0.5488
vn 0.5488 -0.6307 0.5488
vn -0.5488 -0.6307 0.5488
vn -0.5488 -0.6307 -0.5488
vn 0.1431 -0.8917 -0.4293
vn -0.1431 -0.8917 -0.4293
vn -0.2300 -0.6862 -0.6901
vn 0.2300 -0.6862 -0.6901
vn 0.9036 -0.2474 -0.3498
vn 0.9183 -0.2512 -0.3061
vn 0.9183 -0.2512 0.3061
vn 0.9036 -0.2474 0.3498
vn 0.3498 -0.2474 0.9036
vn 0.3061 -0.2512 0.9183
vn -0.3061 -0.2512 0.9183
vn -0.3498 -0.2474 0.9036
vn -0.9036 -0.2474 0.3498
vn -0.9183 -0.2512 0.3061
vn -0.9183 -0.2512 -0.3061
vn -0.9036 -0.2474 -0.3498
vn 0.3061 -0.2512 -0.9183
vn 0.3498 -0.2474 -0.9036
vn -0.3498 -0.2474 -0.9036
vn -0.3061 -0.2512 -0.9183
vn -0.3114 0.1741 0.9342
vn 0.3114 0.1741 0.9342
vn 0.3067 0.3439 0.8875
vn -0.3067 0.3439 0.8875
vn -0.4293 -0.8917 -0.1431
vn -0.4293 -0.8917 0.1431
vn -0.6901 -0.6862 0.2300
vn -0.6901 -0.6862 -0.2300
vn 0.4293 -0.8917 0.1431
vn 0.4293 -0.8917 -0.1431
vn 0.6901 -0.6862 -0.2300
vn 0.6901 -0.6862 0.2300
vn -0.1431 -0.8917 0.4293
vn 0.1431 -0.8917 0.4293
vn 0.2300 -0.6862 0.6901
vn -0.2300 -0.6862 0.6901
vn -0.2980 0.5776 -0.7600
vn 0.0000 0.9460 -0.3240
vn 0.2980 0.5776 -0.7600
vn 0.9342 0.1741 0.3114
vn 0.9342 0.1741 -0.3114
vn 0.8875 0.3439 -0.3067
vn 0.8875 0.3439 0.3067
vn -0.9342 0.1741 -0.3114
vn -0.9342 0.1741 0.3114
vn -0.8875 0.3439 0.3067
vn -0.8875 0.3439 -0.3067
vn 0.3114 0.1741 -0.9342
vn -0.3114 0.1741 -0.9342
vn -0.3067 0.3439 -0.8875
vn 0.3067 0.3439 -0.8875
vn 0.7600 0.5776 0.2980
vn 0.7600 0.5776 -0.2980
vn 0.3240 0.9460 0.0000
vn -0.7600 0.5776 -0.2980
vn -0.7600 0.5776 0.2980
vn -0.3240 0.9460 -0.0000
vn -0.2980 0.5776 0.7600
vn 0.2980 0.5776 0.7600
vn -0.0000 0.9460 0.3240
usemtl Material
s off
f 1//1 19//1 50//1 18//1
f 1//2 18//2 51//2 21//2
f 1//3 21//3 52//3 23//3
f 1//4 23//4 53//4 19//4
f 2//5 35//5 56//5 28//5
f 2//6 28//6 55//6 34//6
f 2//7 34//7 59//7 32//7
f 2//8 32//8 61//8 35//8
f 3//9 18//9 50//9 20//9
f 3//10 20//10 54//10 26//10
f 3//11 26//11 55//11 22//11
f 3//12 22//12 51//12 18//12
f 4//13 21//13 51//13 22//13
f 4//14 22//14 55//14 28//14
f 4//15 28//15 56//15 24//15
f 4//16 24//16 52//16 21//16
f 5//17 23//17 52//17 24//17
f 5//18 24//18 56//18 29//18
f 5//19 29//19 57//19 25//19
f 5//20 25//20 53//20 23//20
f 6//21 27//21 54//21 20//21
f 6//22 20//22 50//22 19//22
f 6//23 19//23 53//23 25//23
f 6//24 25//24 57//24 27//24
f 7//25 43//25 61//25 32//25
f 7//26 32//26 59//26 42//26
f 7//27 42//27 63//27 40//27
f 7//28 40//28 65//28 43//28
f 8//29 34//29 55//29 26//29
f 8//30 26//30 54//30 36//30
f 8//31 36//31 58//31 30//31
f 8//32 30//32 59//32 34//32
f 9//33 37//33 57//33 29//33
f 9//34 29//34 56//34 35//34
f 9//35 35//35 61//35 33//35
f 9//36 33//36 60//36 37//36
f 10//37 36//37 54//37 27//37
f 10//38 27//38 57//38 37//38
f 10//39 37//39 60//39 31//39
f 10//40 31//40 58//40 36//40
f 11//41 39//41 64//41 48//41
f 11//42 48//42 66//42 46//42
f 11//43 46//43 62//43 39//43
f 12//44 42//44 59//44 30//44
f 12//45 30//45 58//45 44//45
f 12//46 44//46 62//46 38//46
f 12//47 38//47 63//47 42//47
f 13//48 45//48 60//48 33//48
f 13//49 33//49 61//49 43//49
f 13//50 43//50 65//50 41//50
f 13//51 41//51 64//51 45//51
f 14//52 44//52 58//52 31//52
f 14//53 31//53 60//53 45//53
f 14//54 45//54 64//54 39//54
f 14//55 39//55 62//55 44//55
f 15//56 47//56 63//56 38//56
f 15//57 38//57 62//57 46//57
f 15//58 46//58 66//58 47//58
f 16//59 48//59 64//59 41//59
f 16//60 41//60 65//60 49//60
f 16//61 49//61 66//61 48//61
f 17//62 49//62 65//62 40//62
f 17//63 40//63 63//63 47//63
f 17//64 47//64 66//64 49//64
