# Blender v2.78 (sub 0) OBJ File: 'rack1.blend'
# www.blender.org
mtllib rack1.mtl
o Mesh_Cube
v -0.035796 1.968117 0.667332
v 0.330093 1.957562 0.667332
v 0.308811 1.641722 0.939341
v 0.481816 1.346493 0.970092
v 0.300389 0.934889 0.944137
v 0.627751 0.698378 0.909284
v 0.697962 0.305763 0.820753
v 0.532897 0.191084 0.824262
v 0.153932 0.191084 0.852333
v -0.152438 0.337427 0.848825
v -0.423560 0.145326 0.874780
v -0.104200 0.688618 0.925785
v -0.366062 0.850431 0.894122
v -0.355507 1.318347 0.894122
v -0.057078 1.652276 0.939341
v 0.924782 0.111519 0.096931
v 0.974051 0.226199 0.563620
v 0.903841 0.618813 0.652151
v 0.820555 0.885489 0.307334
v 0.725892 1.376657 0.590422
v 0.754725 1.605414 0.294783
v 0.672947 1.891089 0.344525
v 0.404879 1.936750 0.384656
v -0.637605 0.145325 0.755476
v -0.590881 0.361454 0.547754
v -0.691548 0.215111 0.214405
v -0.539514 0.715369 0.651548
v -0.647880 1.146991 0.423607
v -0.607945 1.545121 0.631329
v -0.375746 1.858238 0.451791
v -0.626937 1.154520 0.077973
v -0.619238 0.576555 -0.027436
v -0.732632 0.360426 -0.349565
v -0.519267 0.657909 -0.418102
v -0.514380 0.296465 -0.541152
v -0.412621 0.296465 -0.597295
v -0.481782 1.275006 -0.295745
v -0.702846 1.555488 -0.121799
v -0.491590 1.861076 0.044297
v -0.350845 0.615319 -0.615740
v -0.333619 1.240062 -0.539763
v -0.459668 1.538305 -0.402509
v -0.301040 0.317837 -0.824409
v 0.361026 0.113663 -0.856134
v 0.620688 0.113662 -0.712268
v 0.785424 0.226198 -0.388309
v 0.751407 0.607554 -0.266437
v 0.586671 0.782088 -0.598576
v 0.690528 1.327163 -0.556943
v 0.608750 1.570621 -0.753472
v 0.608750 1.950583 -0.433319
v 0.735802 1.947140 -0.169260
v 0.817580 1.661464 -0.219003
v 0.075417 0.432517 -0.793835
v 0.219283 0.719586 -0.798507
v -0.139947 1.229649 -0.753104
v 0.145663 1.535609 -0.749703
v 0.145663 1.915571 -0.429550
v 0.004646 1.957788 -0.125360
v -0.407013 1.907854 -0.237778
v 0.649514 -0.001017 -0.693717
v 0.902158 -0.001017 0.111585
v 0.728465 -0.001017 0.816882
v 0.160017 -0.001017 0.858989
v -0.413695 -0.001017 0.853726
v -0.734763 -0.001018 0.674770
v -0.771607 -0.001018 0.174746
v -0.808451 -0.001017 -0.377912
v -0.718973 -0.001017 -0.667341
v -0.566334 -0.001017 -0.751555
v -0.261056 -0.001017 -0.877936
v -0.544014 0.181911 0.866008
v -0.498172 0.766135 0.801647
v -0.504726 1.441489 0.796593
v -0.192599 1.917048 0.560357
v 0.368447 1.926121 0.543573
v 0.666057 1.427518 0.862336
v 0.818271 0.709260 0.862566
v -0.139541 0.509836 0.882629
v 0.081720 0.812837 0.932597
v 0.123031 1.602267 0.944955
v 0.505143 0.142332 -0.805506
v 0.461203 0.676222 -0.768812
v 0.426514 1.459961 -0.784781
v 0.426514 1.934914 -0.384589
v 0.875861 0.168323 -0.176734
v 0.815787 0.743171 -0.002262
v 0.787610 1.568256 0.010810
v -0.399632 0.370836 -0.522309
v -0.451450 1.388754 -0.323155
v -0.676126 0.525158 -0.433300
v -0.669791 1.381550 -0.025907
v -0.646876 0.359504 0.099382
v -0.602086 1.141810 0.440892
v 0.149633 1.997067 0.604943
v -0.063259 1.881166 0.850813
v 0.394102 1.867973 0.850813
v 0.366399 1.462717 0.961941
v 0.385403 1.127691 0.976904
v 0.460095 0.846345 0.916096
v 0.609622 0.480612 0.871486
v 0.906034 0.218492 0.751903
v 0.588432 0.267779 0.797597
v 0.326103 0.239109 0.860758
v -0.003133 0.275695 0.832686
v -0.293769 0.229937 0.857764
v -0.231155 0.757404 0.939560
v -0.344116 1.070515 0.888431
v -0.208821 1.466235 0.942949
v 0.962493 0.168323 0.358631
v 0.954734 0.381156 0.550070
v 0.866226 0.754430 0.499762
v 0.759520 1.145506 0.438034
v 0.721954 1.483804 0.421132
v 0.742673 1.792424 0.410305
v 0.685387 1.925350 0.072988
v 0.559922 1.909503 0.419433
v 0.234530 1.973673 0.124094
v -0.617425 0.235943 0.663193
v -0.526278 0.540551 0.602478
v -0.652946 0.305729 0.372134
v -0.590662 0.892614 0.528228
v -0.667009 1.371429 0.508009
v -0.643658 1.170439 0.257092
v -0.540926 1.744499 0.558268
v -0.395737 1.863067 0.233643
v -0.589650 0.865439 0.012847
v -0.669539 0.504819 -0.188258
v -0.421809 0.976915 -0.323873
v -0.502613 0.461197 -0.480173
v -0.358749 0.450549 -0.585725
v -0.631195 1.441020 -0.254002
v -0.680494 1.749929 -0.037507
v -0.401247 1.904820 -0.073414
v 0.641982 1.843219 -0.629603
v 0.063123 1.799453 -0.624891
v -0.399807 0.471921 -0.749649
v -0.292666 0.925589 -0.540408
v -0.342307 1.324617 -0.655846
v -0.353284 1.385752 -0.461052
v -0.535123 1.792411 -0.389760
v -0.140602 0.426220 -0.812595
v 0.260022 -0.001017 -0.909517
v 0.260925 0.222046 -0.828530
v 0.698088 0.170466 -0.583282
v 0.767474 0.378341 -0.334124
v 0.655567 0.718928 -0.432987
v 0.618544 1.028123 -0.550470
v 0.775968 1.527481 -0.379495
v 0.662427 1.434056 -0.715920
v 0.673745 1.969012 -0.298846
v 0.821242 1.862487 -0.231927
v 0.119182 0.612667 -0.764766
v 0.043538 0.941243 -0.799440
v -0.008279 1.374665 -0.761191
v 0.027869 1.936662 -0.284102
v -0.216062 1.934733 -0.192720
v -0.141313 -0.001017 0.823462
v -0.622916 -0.001018 0.840568
v -0.775555 -0.001018 0.428706
v -0.767660 -0.001018 -0.092372
v -0.817662 -0.001017 -0.597645
v -0.604494 -0.001017 -0.685733
v -0.490015 -0.001017 -0.827919
v 0.021852 -0.001017 -0.904253
v 0.460031 -0.001017 0.882675
v 0.898210 -0.001017 0.585292
v 0.799521 -0.001017 -0.387123
v 0.465295 -0.001017 -0.852935
v -0.428556 0.447087 0.869952
v -0.573603 1.087989 0.721489
v -0.349020 1.755090 0.816835
v 0.004817 1.971855 0.226558
v 0.628740 1.763413 0.803262
v 0.717518 1.093477 0.870677
v 0.864693 0.417563 0.804115
v 0.196045 0.540605 0.851890
v 0.003503 1.106887 0.988630
v 0.179616 1.901517 0.831970
v 0.535416 0.373334 -0.706945
v 0.424156 0.999328 -0.834180
v 0.414187 1.791969 -0.634876
v 0.456221 1.972192 -0.011273
v 0.924188 0.382162 0.106480
v 0.726220 1.155524 -0.098456
v 0.787157 1.808834 0.071110
v -0.224369 0.875079 -0.359636
v -0.633868 1.738910 -0.254149
v -0.594657 1.019426 -0.249638
v -0.688013 1.644278 0.240622
v -0.566758 0.894589 0.367307
v -0.637414 1.389031 0.514477
v 0.783445 1.834821 -0.525434
v -0.384129 1.782005 -0.559367
v -0.279945 0.873718 -0.718829
vn -0.2261 0.9740 -0.0126
vn -0.4351 0.8494 0.2987
vn -0.0281 0.9133 0.4062
vn 0.5021 0.8564 0.1202
vn 0.2626 0.9510 -0.1630
vn 0.0886 0.9154 0.3926
vn -0.0361 0.3663 0.9298
vn -0.0127 0.0990 0.9950
vn 0.3045 0.2325 0.9237
vn 0.3317 0.2474 0.9104
vn 0.0159 0.0455 0.9988
vn 0.3833 -0.0059 0.9236
vn 0.0431 -0.1799 0.9827
vn 0.0638 -0.2433 0.9679
vn 0.2259 -0.1481 0.9628
vn 0.1691 0.0577 0.9839
vn -0.0758 -0.1512 0.9856
vn 0.2259 -0.1687 0.9594
vn 0.2209 -0.1869 0.9572
vn -0.0905 -0.3186 0.9436
vn 0.0220 -0.5996 0.8000
vn 0.6380 0.3804 0.6695
vn 0.2181 0.1338 0.9667
vn 0.2257 0.2041 0.9526
vn -0.0721 0.0425 0.9965
vn -0.0837 0.0113 0.9964
vn -0.1146 0.0268 0.9931
vn 0.0848 -0.1603 0.9834
vn 0.0336 -0.1068 0.9937
vn 0.0969 -0.0712 0.9927
vn 0.1344 -0.0870 0.9871
vn 0.0298 0.0165 0.9994
vn -0.0795 -0.1230 0.9892
vn 0.1167 -0.2440 0.9627
vn 0.0505 -0.1611 0.9856
vn -0.0007 -0.2243 0.9745
vn -0.5899 0.0692 0.8045
vn -0.4584 0.0178 0.8886
vn -0.2827 0.0544 0.9577
vn -0.4483 0.1622 0.8790
vn -0.5849 -0.0528 0.8094
vn -0.2754 -0.0382 0.9606
vn -0.0410 0.0854 0.9955
vn 0.0539 0.3515 0.9346
vn -0.2774 0.3000 0.9127
vn 0.9594 -0.1961 -0.2027
vn 0.9871 0.0078 -0.1597
vn 0.9506 -0.3099 -0.0197
vn 0.9369 0.1248 0.3267
vn 0.9391 -0.2970 0.1727
vn 0.9921 0.1021 -0.0734
vn 0.9393 0.0708 0.3358
vn 0.9730 0.2226 -0.0603
vn 0.9417 0.2954 0.1612
vn 0.9655 0.2396 -0.1024
vn 0.9720 0.2217 -0.0784
vn 0.9590 0.2734 0.0745
vn 0.9835 0.1118 0.1423
vn 0.9935 0.1086 -0.0344
vn 0.9755 0.1654 0.1447
vn 0.9781 -0.1685 0.1218
vn 0.9921 -0.0219 0.1239
vn 0.9650 -0.0558 0.2564
vn 0.1832 0.9768 0.1110
vn 0.5284 0.8034 0.2745
vn 0.7578 0.6407 0.1238
vn 0.2466 0.9349 0.2552
vn 0.1027 0.9895 0.1019
vn 0.0489 0.9941 0.0971
vn -0.7934 0.2445 0.5575
vn -0.8163 0.4118 0.4052
vn -0.8793 0.4439 0.1724
vn -0.9246 0.1590 0.3463
vn -0.8978 0.3907 0.2032
vn -0.8749 0.3321 0.3525
vn -0.9324 0.3614 -0.0011
vn -0.9840 0.1778 0.0132
vn -0.9448 0.3276 0.0036
vn -0.9559 -0.1363 0.2603
vn -0.9826 -0.1843 -0.0221
vn -0.9429 -0.1465 0.2990
vn -0.9664 -0.1451 0.2122
vn -0.9958 -0.0884 -0.0219
vn -0.9534 -0.2833 -0.1039
vn -0.7210 0.3731 0.5839
vn -0.9249 0.2775 0.2600
vn -0.8743 0.0299 0.4844
vn -0.2782 0.9604 0.0143
vn -0.5816 0.8126 0.0367
vn -0.4281 0.8610 0.2746
vn -0.9923 -0.1236 -0.0005
vn -0.9872 -0.1558 -0.0330
vn -0.9802 -0.1959 0.0279
vn -0.9923 0.1185 0.0365
vn -0.9794 0.1314 0.1535
vn -0.9560 0.2245 0.1887
vn -0.9657 0.2060 0.1580
vn -0.9792 0.1985 0.0428
vn -0.9701 0.2419 -0.0199
vn -0.0269 0.2938 -0.9555
vn -0.1365 0.3175 -0.9384
vn -0.2596 0.3629 -0.8949
vn -0.3187 0.4801 -0.8173
vn -0.0872 0.3377 -0.9372
vn -0.1503 0.4686 -0.8705
vn -0.6958 0.5762 -0.4287
vn -0.9223 0.3590 -0.1434
vn -0.7790 0.4980 -0.3810
vn -0.3683 -0.0374 -0.9290
vn -0.2664 -0.0175 -0.9637
vn -0.3475 -0.0156 -0.9375
vn -0.9682 -0.1472 -0.2022
vn -0.9985 -0.0275 0.0476
vn -0.9314 0.0972 -0.3508
vn -0.5722 0.7712 0.2791
vn -0.2627 0.9555 0.1346
vn -0.4932 0.8619 -0.1177
vn -0.9273 0.0944 0.3622
vn -0.9677 0.2484 -0.0430
vn -0.9580 0.1280 0.2566
vn -0.9561 -0.1674 0.2406
vn -0.9952 -0.0937 -0.0267
vn -0.9909 -0.1314 -0.0282
vn -0.7774 -0.3111 -0.5466
vn -0.7805 -0.2559 -0.5704
vn -0.7187 -0.2049 -0.6644
vn -0.2775 0.1748 -0.9447
vn -0.1999 0.1901 -0.9612
vn -0.0740 0.1711 -0.9825
vn 0.2085 0.3782 -0.9019
vn 0.2697 0.2191 -0.9377
vn 0.0180 0.3412 -0.9398
vn 0.6463 0.0575 -0.7609
vn 0.7156 0.2484 -0.6528
vn 0.8826 0.0510 -0.4674
vn 0.9168 0.2269 -0.3286
vn 0.9150 0.0547 -0.3998
vn 0.8117 0.3170 -0.4905
vn 0.9238 0.1504 -0.3521
vn 0.9294 0.1733 -0.3259
vn 0.8581 0.1385 -0.4944
vn 0.8638 0.0251 -0.5031
vn 0.8188 -0.0100 -0.5740
vn 0.9611 0.0103 -0.2759
vn 0.8364 -0.2820 -0.4701
vn 0.9482 -0.1564 -0.2766
vn 0.9554 -0.2444 -0.1659
vn 0.2843 0.0434 -0.9577
vn -0.0824 0.4135 -0.9068
vn 0.6641 0.1860 -0.7242
vn -0.1058 0.9904 -0.0889
vn 0.3755 0.8537 -0.3608
vn -0.1907 0.8525 -0.4867
vn 0.7484 0.6313 0.2033
vn 0.6242 0.7652 -0.1578
vn 0.1506 0.9824 0.1106
vn 0.9933 -0.0195 0.1140
vn 0.9836 -0.1801 -0.0105
vn 0.9866 -0.0680 -0.1484
vn 0.0385 0.1976 -0.9795
vn 0.2092 0.2310 -0.9502
vn 0.0818 0.2365 -0.9682
vn 0.0310 -0.2289 -0.9729
vn -0.2004 -0.1483 -0.9684
vn -0.0051 -0.1228 -0.9924
vn -0.3186 0.0341 -0.9473
vn -0.3206 0.1842 -0.9291
vn -0.1122 0.0740 -0.9909
vn -0.0765 0.1162 -0.9903
vn -0.1806 0.3279 -0.9273
vn -0.0099 0.4174 -0.9087
vn -0.0249 0.9929 -0.1159
vn 0.0117 0.8634 -0.5044
vn -0.1368 0.9139 -0.3821
vn -0.0103 0.9963 -0.0851
vn -0.1138 0.9521 -0.2837
vn -0.0582 0.9975 -0.0398
vn -0.5954 0.8027 -0.0333
vn -0.1573 0.9875 0.0034
vn -0.1785 0.9119 -0.3696
usemtl Material
s off
f 1//1 95//1 173//1 75//1
f 1//2 75//2 172//2 96//2
f 1//3 96//3 179//3 95//3
f 2//4 97//4 174//4 76//4
f 2//5 76//5 173//5 95//5
f 2//6 95//6 179//6 97//6
f 3//7 97//7 179//7 81//7
f 3//8 81//8 178//8 98//8
f 3//9 98//9 174//9 97//9
f 4//10 77//10 174//10 98//10
f 4//11 98//11 178//11 99//11
f 4//12 99//12 175//12 77//12
f 5//13 99//13 178//13 80//13
f 5//14 80//14 177//14 100//14
f 5//15 100//15 175//15 99//15
f 6//16 78//16 175//16 100//16
f 6//17 100//17 177//17 101//17
f 6//18 101//18 176//18 78//18
f 7//19 102//19 176//19 101//19
f 7//20 101//20 177//20 103//20
f 7//21 103//21 167//21 102//21
f 8//22 63//22 167//22 103//22
f 8//23 103//23 177//23 104//23
f 8//24 104//24 166//24 63//24
f 9//25 64//25 166//25 104//25
f 9//26 104//26 177//26 105//26
f 9//27 105//27 158//27 64//27
f 10//28 105//28 177//28 79//28
f 10//29 79//29 170//29 106//29
f 10//30 106//30 158//30 105//30
f 11//31 65//31 158//31 106//31
f 11//32 106//32 170//32 72//32
f 11//33 72//33 159//33 65//33
f 12//34 79//34 177//34 80//34
f 12//35 80//35 178//35 107//35
f 12//36 107//36 170//36 79//36
f 13//37 108//37 171//37 73//37
f 13//38 73//38 170//38 107//38
f 13//39 107//39 178//39 108//39
f 14//40 109//40 172//40 74//40
f 14//41 74//41 171//41 108//41
f 14//42 108//42 178//42 109//42
f 15//43 109//43 178//43 81//43
f 15//44 81//44 179//44 96//44
f 15//45 96//45 172//45 109//45
f 16//46 62//46 168//46 86//46
f 16//47 86//47 184//47 110//47
f 16//48 110//48 167//48 62//48
f 17//49 111//49 176//49 102//49
f 17//50 102//50 167//50 110//50
f 17//51 110//51 184//51 111//51
f 18//52 78//52 176//52 111//52
f 18//53 111//53 184//53 112//53
f 18//54 112//54 175//54 78//54
f 19//55 112//55 184//55 87//55
f 19//56 87//56 185//56 113//56
f 19//57 113//57 175//57 112//57
f 20//58 77//58 175//58 113//58
f 20//59 113//59 185//59 114//59
f 20//60 114//60 174//60 77//60
f 21//61 114//61 185//61 88//61
f 21//62 88//62 186//62 115//62
f 21//63 115//63 174//63 114//63
f 22//64 116//64 183//64 117//64
f 22//65 117//65 174//65 115//65
f 22//66 115//66 186//66 116//66
f 23//67 76//67 174//67 117//67
f 23//68 117//68 183//68 118//68
f 23//69 118//69 173//69 76//69
f 24//70 66//70 159//70 72//70
f 24//71 72//71 170//71 119//71
f 24//72 119//72 160//72 66//72
f 25//73 120//73 191//73 121//73
f 25//74 121//74 160//74 119//74
f 25//75 119//75 170//75 120//75
f 26//76 67//76 160//76 121//76
f 26//77 121//77 191//77 93//77
f 26//78 93//78 161//78 67//78
f 27//79 73//79 171//79 122//79
f 27//80 122//80 191//80 120//80
f 27//81 120//81 170//81 73//81
f 28//82 122//82 171//82 123//82
f 28//83 123//83 190//83 124//83
f 28//84 124//84 191//84 122//84
f 29//85 74//85 172//85 125//85
f 29//86 125//86 190//86 123//86
f 29//87 123//87 171//87 74//87
f 30//88 75//88 173//88 126//88
f 30//89 126//89 190//89 125//89
f 30//90 125//90 172//90 75//90
f 31//91 124//91 190//91 92//91
f 31//92 92//92 189//92 127//92
f 31//93 127//93 191//93 124//93
f 32//94 93//94 191//94 127//94
f 32//95 127//95 189//95 128//95
f 32//96 128//96 161//96 93//96
f 33//97 68//97 161//97 128//97
f 33//98 128//98 189//98 91//98
f 33//99 91//99 162//99 68//99
f 34//100 129//100 187//100 130//100
f 34//101 130//101 162//101 91//101
f 34//102 91//102 189//102 129//102
f 35//103 69//103 162//103 130//103
f 35//104 130//104 187//104 89//104
f 35//105 89//105 163//105 69//105
f 36//106 70//106 163//106 89//106
f 36//107 89//107 187//107 131//107
f 36//108 131//108 164//108 70//108
f 37//109 132//109 188//109 90//109
f 37//110 90//110 187//110 129//110
f 37//111 129//111 189//111 132//111
f 38//112 132//112 189//112 92//112
f 38//113 92//113 190//113 133//113
f 38//114 133//114 188//114 132//114
f 39//115 133//115 190//115 126//115
f 39//116 126//116 173//116 134//116
f 39//117 134//117 188//117 133//117
f 40//118 131//118 187//118 138//118
f 40//119 138//119 195//119 137//119
f 40//120 137//120 164//120 131//120
f 41//121 138//121 187//121 140//121
f 41//122 140//122 194//122 139//122
f 41//123 139//123 195//123 138//123
f 42//124 140//124 187//124 90//124
f 42//125 90//125 188//125 141//125
f 42//126 141//126 194//126 140//126
f 43//127 71//127 164//127 137//127
f 43//128 137//128 195//128 142//128
f 43//129 142//129 165//129 71//129
f 44//130 144//130 180//130 82//130
f 44//131 82//131 169//131 143//131
f 44//132 143//132 165//132 144//132
f 45//133 61//133 169//133 82//133
f 45//134 82//134 180//134 145//134
f 45//135 145//135 168//135 61//135
f 46//136 146//136 184//136 86//136
f 46//137 86//137 168//137 145//137
f 46//138 145//138 180//138 146//138
f 47//139 147//139 185//139 87//139
f 47//140 87//140 184//140 146//140
f 47//141 146//141 180//141 147//141
f 48//142 147//142 180//142 83//142
f 48//143 83//143 181//143 148//143
f 48//144 148//144 185//144 147//144
f 49//145 148//145 181//145 150//145
f 49//146 150//146 193//146 149//146
f 49//147 149//147 185//147 148//147
f 50//148 150//148 181//148 84//148
f 50//149 84//149 182//149 135//149
f 50//150 135//150 193//150 150//150
f 51//151 85//151 183//151 151//151
f 51//152 151//152 193//152 135//152
f 51//153 135//153 182//153 85//153
f 52//154 116//154 186//154 152//154
f 52//155 152//155 193//155 151//155
f 52//156 151//156 183//156 116//156
f 53//157 152//157 186//157 88//157
f 53//158 88//158 185//158 149//158
f 53//159 149//159 193//159 152//159
f 54//160 142//160 195//160 153//160
f 54//161 153//161 180//161 144//161
f 54//162 144//162 165//162 142//162
f 55//163 83//163 180//163 153//163
f 55//164 153//164 195//164 154//164
f 55//165 154//165 181//165 83//165
f 56//166 154//166 195//166 139//166
f 56//167 139//167 194//167 155//167
f 56//168 155//168 181//168 154//168
f 57//169 84//169 181//169 155//169
f 57//170 155//170 194//170 136//170
f 57//171 136//171 182//171 84//171
f 58//172 156//172 183//172 85//172
f 58//173 85//173 182//173 136//173
f 58//174 136//174 194//174 156//174
f 59//175 118//175 183//175 156//175
f 59//176 156//176 194//176 157//176
f 59//177 157//177 173//177 118//177
f 60//178 141//178 188//178 134//178
f 60//179 134//179 173//179 157//179
f 60//180 157//180 194//180 141//180
l 191 94
l 94 192
