# Blender v2.91.0 OBJ File: ''
# www.blender.org
mtllib ship.mtl
o Cube
v -1.000000 -0.001842 0.727202
v -1.000000 -0.727202 0.727202
v -1.000000 -0.001842 -0.727202
v -1.000000 -0.727202 -0.727202
v 0.055445 0.070332 1.000000
v 0.055445 -0.799376 1.000000
v 0.082163 0.270956 -1.000000
v 0.082163 -1.000000 -1.000000
v -0.799376 0.070332 1.000000
v -0.799376 -0.799376 1.000000
v -1.000000 0.270956 -1.000000
v -1.000000 -1.000000 -1.000000
v -3.406296 -0.338685 1.560961
v -3.406296 -0.727202 1.560961
v -3.406296 -0.338685 0.106558
v -3.406296 -0.727202 0.106558
v -1.000000 -1.000000 1.000000
v 0.082163 -1.000000 1.000000
v -1.000000 0.270956 1.000000
v 0.082163 0.270956 1.000000
v 0.070089 -0.199561 5.060212
v 0.070089 -0.799376 5.060212
v -0.574224 -0.199561 5.060212
v -0.574224 -0.799376 5.060212
v 1.000000 -0.001842 0.727202
v 1.000000 -0.727202 0.727202
v 1.000000 -0.001842 -0.727202
v 1.000000 -0.727202 -0.727202
v -0.055445 0.070332 1.000000
v -0.055445 -0.799376 1.000000
v -0.082163 0.270956 -1.000000
v -0.082163 -1.000000 -1.000000
v 0.799376 0.070332 1.000000
v 0.799376 -0.799376 1.000000
v 1.000000 0.270956 -1.000000
v 1.000000 -1.000000 -1.000000
v 3.406296 -0.338685 1.560960
v 3.406296 -0.727202 1.560960
v 3.406296 -0.338685 0.106557
v 3.406296 -0.727202 0.106557
v 1.000000 -1.000000 1.000000
v -0.082163 -1.000000 1.000000
v 1.000000 0.270956 1.000000
v -0.082163 0.270956 1.000000
v -0.070088 -0.199561 5.060212
v -0.070088 -0.799376 5.060212
v 0.574224 -0.199561 5.060212
v 0.574224 -0.799376 5.060212
vt 0.625000 0.500000
vt 0.875000 0.500000
vt 0.875000 0.750000
vt 0.625000 0.750000
vt 0.375000 0.750000
vt 0.625000 1.000000
vt 0.375000 1.000000
vt 0.375000 0.000000
vt 0.625000 0.000000
vt 0.625000 0.250000
vt 0.375000 0.250000
vt 0.125000 0.500000
vt 0.375000 0.500000
vt 0.125000 0.750000
vt 0.590900 0.715900
vt 0.409100 0.715900
vt 0.409100 0.715900
vt 0.590900 0.715900
vt 0.585537 0.296348
vt 0.585537 0.453652
vt 0.585537 0.453652
vt 0.585537 0.296348
vt 0.590900 0.534100
vt 0.409100 0.534100
vt 0.409100 0.534100
vt 0.590900 0.534100
vt 0.414463 0.296348
vt 0.414463 0.453652
vt 0.414463 0.296348
vt 0.414463 0.453652
vt 0.625000 0.500000
vt 0.625000 0.750000
vt 0.875000 0.750000
vt 0.875000 0.500000
vt 0.375000 0.750000
vt 0.375000 1.000000
vt 0.625000 1.000000
vt 0.375000 0.000000
vt 0.375000 0.250000
vt 0.625000 0.250000
vt 0.625000 0.000000
vt 0.125000 0.500000
vt 0.125000 0.750000
vt 0.375000 0.500000
vt 0.590900 0.715900
vt 0.590900 0.715900
vt 0.409100 0.715900
vt 0.409100 0.715900
vt 0.585537 0.296348
vt 0.585537 0.296348
vt 0.585537 0.453652
vt 0.585537 0.453652
vt 0.590900 0.534100
vt 0.409100 0.534100
vt 0.409100 0.534100
vt 0.590900 0.534100
vt 0.414463 0.296348
vt 0.414463 0.453652
vt 0.414463 0.296348
vt 0.414463 0.453652
vn 0.0000 1.0000 0.0000
vn -0.0000 0.0000 -1.0000
vn 1.0000 0.0000 -0.0000
vn 0.0000 -1.0000 -0.0000
vn -0.3274 0.0000 -0.9449
vn 0.0000 0.9978 0.0663
vn -1.0000 0.0000 0.0000
vn -0.1386 0.9903 0.0000
vn 0.3274 0.0000 0.9449
vn 0.0000 -0.0000 1.0000
vn -0.9985 0.0000 0.0554
vn 1.0000 0.0000 -0.0036
vn 0.3274 0.0000 -0.9449
vn 0.1386 0.9903 -0.0000
vn -0.3274 0.0000 0.9449
vn 0.9985 0.0000 0.0554
vn -1.0000 0.0000 -0.0036
usemtl Material
s off
f 19/1/1 20/2/1 7/3/1 11/4/1
f 12/5/2 11/4/2 7/6/2 8/7/2
f 8/8/3 7/9/3 20/10/3 18/11/3
f 18/12/4 17/13/4 12/5/4 8/14/4
f 3/15/5 4/16/5 16/17/5 15/18/5
f 5/19/6 9/20/6 23/21/6 21/22/6
f 1/23/7 2/24/7 17/13/7 19/1/7
f 4/16/7 3/15/7 11/4/7 12/5/7
f 3/15/7 1/23/7 19/1/7 11/4/7
f 2/24/7 4/16/7 12/5/7 17/13/7
f 14/25/7 13/26/7 15/18/7 16/17/7
f 1/23/8 3/15/8 15/18/8 13/26/8
f 2/24/9 1/23/9 13/26/9 14/25/9
f 4/16/4 2/24/4 14/25/4 16/17/4
f 6/27/10 10/28/10 17/13/10 18/11/10
f 10/28/10 9/20/10 19/1/10 17/13/10
f 5/19/10 6/27/10 18/11/10 20/10/10
f 9/20/10 5/19/10 20/10/10 19/1/10
f 22/29/10 21/22/10 23/21/10 24/30/10
f 9/20/11 10/28/11 24/30/11 23/21/11
f 6/27/12 5/19/12 21/22/12 22/29/12
f 10/28/4 6/27/4 22/29/4 24/30/4
f 43/31/1 35/32/1 31/33/1 44/34/1
f 36/35/2 32/36/2 31/37/2 35/32/2
f 32/38/7 42/39/7 44/40/7 31/41/7
f 42/42/4 32/43/4 36/35/4 41/44/4
f 27/45/13 39/46/13 40/47/13 28/48/13
f 29/49/6 45/50/6 47/51/6 33/52/6
f 25/53/3 43/31/3 41/44/3 26/54/3
f 28/48/3 36/35/3 35/32/3 27/45/3
f 27/45/3 35/32/3 43/31/3 25/53/3
f 26/54/3 41/44/3 36/35/3 28/48/3
f 38/55/3 40/47/3 39/46/3 37/56/3
f 25/53/14 37/56/14 39/46/14 27/45/14
f 26/54/15 38/55/15 37/56/15 25/53/15
f 28/48/4 40/47/4 38/55/4 26/54/4
f 30/57/10 42/39/10 41/44/10 34/58/10
f 34/58/10 41/44/10 43/31/10 33/52/10
f 29/49/10 44/40/10 42/39/10 30/57/10
f 33/52/10 43/31/10 44/40/10 29/49/10
f 46/59/10 48/60/10 47/51/10 45/50/10
f 33/52/16 47/51/16 48/60/16 34/58/16
f 30/57/17 46/59/17 45/50/17 29/49/17
f 34/58/4 48/60/4 46/59/4 30/57/4
