# Blender v2.78 (sub 0) OBJ File: 'squrly_pole.blend'
# www.blender.org
mtllib squrly_pole.mtl
o Mesh_Cube
v 0.000000 -0.096089 -0.000000
v -0.229665 0.110402 -0.000000
v 0.326068 0.000000 0.000000
v -0.000000 0.000000 0.326068
v -0.326068 0.000000 -0.000000
v 0.000000 0.000000 -0.326068
v -0.000000 0.266039 -0.133261
v 0.000000 0.110402 -0.229665
v -0.000000 0.110402 0.229665
v 0.229665 0.110402 0.000000
v -0.000000 0.407364 0.092756
v -0.000000 0.266039 0.133261
v 0.133261 0.266039 0.000000
v -0.133261 0.266039 0.000000
v -0.052251 1.391058 0.000000
v 0.092756 0.407364 0.000000
v -0.092756 0.407364 0.000000
v -0.000000 0.407364 -0.092756
v 0.112376 2.641478 0.052251
v -0.000000 1.391058 -0.052251
v -0.000000 1.391058 0.052251
v 0.052251 1.391058 0.000000
v 0.224751 2.935279 0.052251
v 0.164626 2.641478 0.000000
v 0.060125 2.641478 0.000000
v 0.112376 2.641478 -0.052251
v 0.224751 2.962355 0.000000
v 0.465518 2.857950 0.000000
v 0.172500 2.935279 0.000000
v 0.224751 2.935279 -0.052251
v 0.695769 2.834772 0.052251
v 0.465518 2.885026 -0.052251
v 0.465518 2.885026 0.052251
v 0.465518 2.912102 0.000000
v 0.737505 2.834772 0.000000
v 0.673439 2.634517 0.000000
v 0.695769 2.834773 -0.052251
v 0.695769 2.861848 0.000000
v 0.567637 2.440075 -0.052251
v 0.589967 2.634517 0.000000
v 0.631703 2.634517 -0.052251
v 0.631703 2.634517 0.052251
v 0.567637 2.418813 0.000000
v 0.609373 2.440075 0.000000
v 0.567637 2.440075 0.052251
v 0.442477 2.465739 0.000000
v 0.342231 2.533929 0.052251
v 0.442477 2.487002 0.052251
v 0.442477 2.487002 -0.052251
v 0.442477 2.508265 0.000000
v 0.325410 2.533929 0.000000
v 0.342231 2.512666 0.000000
v 0.342231 2.533929 -0.052251
v 0.357913 2.603004 0.052251
v 0.434642 2.697260 0.050041
v 0.341092 2.603004 0.000000
v 0.357913 2.603004 -0.052251
v 0.374735 2.603004 0.000000
v 0.495688 2.743703 -0.004421
v 0.451463 2.697260 -0.002210
v 0.434642 2.697260 -0.054461
v 0.417820 2.697260 -0.002210
v 0.244551 -0.072067 0.000000
v 0.000000 -0.072067 -0.244551
v 0.244551 0.000000 -0.244551
v -0.000000 -0.072067 0.244551
v 0.244551 0.000000 0.244551
v -0.244551 -0.072067 -0.000000
v -0.244551 0.000000 0.244551
v -0.244551 0.000000 -0.244551
v 0.301967 0.075645 0.000000
v 0.000000 0.075645 -0.301967
v -0.000000 0.075645 0.301968
v -0.301968 0.075645 -0.000000
v 0.157362 0.156468 0.000000
v -0.000000 0.156468 -0.157362
v -0.000000 0.156468 0.157362
v -0.157362 0.156468 0.000000
v -0.172249 0.110402 0.172249
v -0.172249 0.110402 -0.172249
v 0.172249 0.110402 -0.172248
v 0.172248 0.110402 0.172249
v 0.123135 0.372033 0.000000
v -0.000000 0.372033 -0.123135
v -0.000000 0.372033 0.123135
v -0.123135 0.372033 0.000000
v -0.099946 0.266039 -0.099946
v 0.099946 0.266039 -0.099946
v 0.099946 0.266039 0.099946
v -0.099946 0.266039 0.099946
v 0.062377 0.653288 0.000000
v -0.000000 0.653288 -0.062377
v -0.000000 0.653288 0.062377
v -0.062377 0.653288 0.000000
v 0.069567 0.407364 0.069567
v -0.069567 0.407364 0.069567
v 0.069567 0.407364 -0.069567
v -0.069567 0.407364 -0.069567
v 0.080345 2.195511 0.000000
v 0.028094 2.195511 -0.052251
v 0.028094 2.195510 0.052251
v -0.024157 2.195511 0.000000
v -0.039188 1.391058 0.039188
v -0.039188 1.391058 -0.039188
v 0.039188 1.391058 -0.039188
v 0.039188 1.391058 0.039188
v 0.296037 2.828959 0.000000
v 0.196657 2.848291 -0.052251
v 0.196657 2.848291 0.052251
v 0.144406 2.848291 0.000000
v 0.151564 2.641478 0.039188
v 0.073187 2.641478 0.039188
v 0.151564 2.641478 -0.039188
v 0.073187 2.641478 -0.039188
v 0.311068 2.949792 0.000000
v 0.224751 2.955586 -0.039188
v 0.224751 2.955586 0.039188
v 0.185563 2.955586 0.000000
v 0.311068 2.922716 0.052251
v 0.185563 2.935279 0.039188
v 0.311068 2.922716 -0.052251
v 0.185563 2.935279 -0.039188
v 0.590888 2.776965 0.000000
v 0.617339 2.874411 0.000000
v 0.617338 2.847336 0.052251
v 0.617339 2.847336 -0.052251
v 0.465518 2.864719 -0.039188
v 0.465518 2.864719 0.039188
v 0.465518 2.905333 -0.039188
v 0.465518 2.905333 0.039188
v 0.721489 2.771171 0.000000
v 0.727071 2.855079 0.000000
v 0.727071 2.834772 0.039189
v 0.727071 2.834773 -0.039188
v 0.679753 2.771171 0.052251
v 0.695769 2.855079 0.039189
v 0.679753 2.771171 -0.052251
v 0.695769 2.855079 -0.039188
v 0.521061 2.516365 0.000000
v 0.625389 2.499317 0.000000
v 0.583653 2.499317 0.052251
v 0.583653 2.499317 -0.052251
v 0.663005 2.634518 0.039189
v 0.663005 2.634518 -0.039188
v 0.600401 2.634518 -0.039188
v 0.600401 2.634518 0.039189
v 0.515479 2.430544 0.000000
v 0.598939 2.424128 0.000000
v 0.567637 2.424128 0.039189
v 0.567637 2.424128 -0.039188
v 0.598939 2.440075 -0.039188
v 0.515479 2.451807 -0.052251
v 0.598939 2.440075 0.039189
v 0.515479 2.451807 0.052251
v 0.383829 2.555413 0.000000
v 0.375703 2.500935 0.000000
v 0.375703 2.522198 -0.052251
v 0.375703 2.522198 0.052251
v 0.442477 2.471055 0.039189
v 0.442477 2.471055 -0.039188
v 0.442477 2.502949 0.039189
v 0.442477 2.502949 -0.039188
v 0.329331 2.561830 0.000000
v 0.329616 2.517982 0.000000
v 0.329616 2.533929 -0.039188
v 0.329616 2.533929 0.039189
v 0.346152 2.561830 0.052251
v 0.342231 2.517982 0.039189
v 0.342231 2.517982 -0.039188
v 0.346152 2.561830 -0.052251
v 0.401758 2.650474 -0.000552
v 0.368115 2.650474 -0.000552
v 0.384936 2.650474 0.051699
v 0.384936 2.650474 -0.052803
v 0.370529 2.603004 0.039189
v 0.345297 2.603004 0.039189
v 0.345298 2.603004 -0.039188
v 0.370529 2.603004 -0.039188
v 0.493042 2.732092 -0.003868
v 0.467810 2.732092 -0.003868
v 0.480426 2.732092 0.035320
v 0.480426 2.732092 -0.043056
v 0.447258 2.697260 0.036978
v 0.422026 2.697260 0.036978
v 0.447258 2.697260 -0.041398
v 0.422026 2.697260 -0.041398
v 0.181149 -0.053383 -0.181149
v 0.181149 -0.053383 0.181149
v -0.181149 -0.053383 0.181149
v -0.181149 -0.053383 -0.181149
v 0.226476 0.075645 -0.226475
v 0.226475 0.075645 0.226476
v -0.226476 0.075645 0.226476
v -0.226476 0.075645 -0.226476
v 0.118021 0.156468 -0.118021
v 0.118021 0.156468 0.118022
v -0.118021 0.156468 -0.118021
v -0.118022 0.156468 0.118021
v 0.092351 0.372033 -0.092351
v 0.092351 0.372033 0.092351
v -0.092351 0.372033 -0.092351
v -0.092351 0.372033 0.092351
v 0.046783 0.653288 -0.046783
v 0.046783 0.653288 0.046783
v -0.046783 0.653288 -0.046783
v -0.046783 0.653288 0.046783
v 0.067282 2.195510 -0.039188
v 0.067282 2.195510 0.039188
v -0.011094 2.195510 -0.039188
v -0.011094 2.195510 0.039188
v 0.280824 2.861820 -0.043891
v 0.280824 2.861819 0.043891
v 0.157469 2.848291 -0.039188
v 0.157469 2.848291 0.039188
v 0.311068 2.943023 -0.039188
v 0.311068 2.943023 0.039188
v 0.195723 2.950322 -0.029028
v 0.195723 2.950322 0.029028
v 0.620298 2.792361 -0.043891
v 0.620298 2.792361 0.043891
v 0.617339 2.867642 -0.039188
v 0.617339 2.867642 0.039189
v 0.711055 2.771171 -0.039188
v 0.711055 2.771171 0.039189
v 0.718956 2.849814 -0.029028
v 0.718956 2.849814 0.029029
v 0.529481 2.493153 -0.043890
v 0.529481 2.493153 0.043891
v 0.614955 2.499317 -0.039188
v 0.614955 2.499317 0.039189
v 0.515479 2.435860 -0.039188
v 0.515479 2.435860 0.039189
v 0.590824 2.428263 -0.029028
v 0.590824 2.428263 0.029029
v 0.372218 2.551932 -0.043890
v 0.372218 2.551932 0.043891
v 0.375703 2.506250 -0.039188
v 0.375703 2.506250 0.039189
v 0.333536 2.561830 -0.039188
v 0.333536 2.561830 0.039189
v 0.332886 2.522117 -0.029028
v 0.332886 2.522117 0.029029
v 0.397552 2.650474 -0.039741
v 0.397552 2.650474 0.038636
v 0.372321 2.650474 -0.039741
v 0.372321 2.650474 0.038636
v 0.477901 2.723062 -0.032467
v 0.477901 2.723062 0.025590
v 0.459211 2.723062 -0.032467
v 0.459211 2.723062 0.025590
vn 0.1163 -0.9864 -0.1163
vn 0.1163 -0.9864 0.1163
vn -0.1163 -0.9864 0.1163
vn -0.1163 -0.9864 -0.1163
vn -0.4288 0.8920 -0.1429
vn -0.4288 0.8920 0.1429
vn -0.5289 0.8302 0.1763
vn -0.5289 0.8302 -0.1763
vn 0.5771 -0.7834 -0.2308
vn 0.9081 0.2893 -0.3027
vn 0.9081 0.2893 0.3027
vn 0.5771 -0.7834 0.2308
vn 0.2308 -0.7834 0.5771
vn 0.3027 0.2893 0.9081
vn -0.3027 0.2893 0.9081
vn -0.2308 -0.7834 0.5771
vn -0.5771 -0.7834 0.2308
vn -0.9081 0.2893 0.3027
vn -0.9081 0.2893 -0.3027
vn -0.5771 -0.7834 -0.2308
vn 0.3027 0.2893 -0.9081
vn 0.2308 -0.7834 -0.5771
vn -0.2308 -0.7834 -0.5771
vn -0.3027 0.2893 -0.9081
vn 0.3096 0.2043 -0.9287
vn -0.3096 0.2043 -0.9287
vn -0.3149 0.0903 -0.9448
vn 0.3149 0.0903 -0.9448
vn 0.1429 0.8920 -0.4288
vn -0.1429 0.8920 -0.4288
vn -0.1763 0.8302 -0.5289
vn 0.1763 0.8302 -0.5289
vn -0.1429 0.8920 0.4288
vn 0.1429 0.8920 0.4288
vn 0.1763 0.8302 0.5289
vn -0.1763 0.8302 0.5289
vn 0.4288 0.8920 0.1429
vn 0.4288 0.8920 -0.1429
vn 0.5289 0.8302 -0.1763
vn 0.5289 0.8302 0.1763
vn -0.2450 0.6321 0.7351
vn 0.2450 0.6321 0.7351
vn 0.3141 0.1164 0.9422
vn -0.3141 0.1164 0.9422
vn -0.3096 0.2043 0.9287
vn 0.3096 0.2043 0.9287
vn 0.3149 0.0903 0.9448
vn -0.3149 0.0903 0.9448
vn 0.9287 0.2043 0.3096
vn 0.9287 0.2043 -0.3096
vn 0.9448 0.0903 -0.3149
vn 0.9448 0.0903 0.3149
vn -0.9287 0.2043 -0.3096
vn -0.9287 0.2043 0.3096
vn -0.9448 0.0903 0.3149
vn -0.9448 0.0903 -0.3149
vn -0.9486 0.0130 -0.3162
vn -0.9486 0.0130 0.3162
vn -0.9482 0.0331 0.3161
vn -0.9482 0.0331 -0.3161
vn 0.7351 0.6321 0.2450
vn 0.7351 0.6321 -0.2450
vn 0.9422 0.1164 -0.3141
vn 0.9422 0.1164 0.3141
vn -0.7351 0.6321 -0.2450
vn -0.7351 0.6321 0.2450
vn -0.9422 0.1164 0.3141
vn -0.9422 0.1164 -0.3141
vn 0.2450 0.6321 -0.7351
vn -0.2450 0.6321 -0.7351
vn -0.3141 0.1164 -0.9422
vn 0.3141 0.1164 -0.9422
vn -0.3157 0.0597 0.9470
vn 0.3157 -0.0597 0.9470
vn 0.1810 -0.1013 0.9783
vn -0.3136 0.1278 0.9409
vn 0.3162 0.0130 -0.9486
vn -0.3162 0.0130 -0.9486
vn -0.3162 0.0110 -0.9486
vn 0.3162 -0.0110 -0.9486
vn -0.3162 0.0130 0.9486
vn 0.3162 0.0130 0.9486
vn 0.3162 -0.0110 0.9486
vn -0.3162 0.0110 0.9486
vn 0.9486 0.0130 0.3162
vn 0.9486 0.0130 -0.3162
vn 0.9482 -0.0331 -0.3161
vn 0.9482 -0.0331 0.3161
vn -0.3146 0.1016 0.9438
vn 0.0493 -0.0757 0.9959
vn 0.0785 0.5393 0.8384
vn -0.3019 0.5825 0.7547
vn 0.9338 -0.1765 0.3113
vn 0.9338 -0.1765 -0.3113
vn 0.7511 -0.4853 -0.4476
vn 0.7511 -0.4853 0.4476
vn -0.9338 0.1765 -0.3113
vn -0.9338 0.1765 0.3113
vn -0.8849 0.3606 0.2950
vn -0.8849 0.3606 -0.2950
vn 0.3157 -0.0597 -0.9470
vn -0.3157 0.0597 -0.9470
vn -0.3136 0.1278 -0.9409
vn 0.1810 -0.1013 -0.9783
vn 0.1420 0.9754 -0.1685
vn -0.1989 0.9596 -0.1989
vn -0.1989 0.9596 0.1989
vn 0.1420 0.9754 0.1685
vn 0.0863 -0.8930 0.4418
vn 0.0863 -0.8930 -0.4418
vn -0.4499 -0.8104 -0.3754
vn -0.4499 -0.8104 0.3754
vn -0.9071 0.2929 -0.3024
vn -0.9071 0.2929 0.3024
vn -0.7547 0.5825 0.3019
vn -0.7547 0.5825 -0.3019
vn 0.0493 -0.0757 -0.9959
vn -0.3146 0.1016 -0.9438
vn -0.3019 0.5825 -0.7547
vn 0.0785 0.5393 -0.8384
vn 0.0863 0.5390 0.8379
vn -0.0755 -0.0619 0.9952
vn 0.3833 -0.0965 0.9186
vn 0.3685 0.5680 0.7359
vn -0.0123 -0.2508 -0.9680
vn 0.1309 0.5364 -0.8338
vn 0.1331 0.5362 -0.8335
vn -0.1137 -0.2761 -0.9544
vn 0.1309 0.5363 0.8338
vn -0.0123 -0.2508 0.9680
vn -0.1137 -0.2761 0.9544
vn 0.1331 0.5362 0.8335
vn 0.2338 0.9581 -0.1655
vn 0.2338 0.9581 0.1655
vn 0.2376 0.9572 0.1653
vn 0.2376 0.9572 -0.1653
vn 0.9389 -0.2364 0.2500
vn 0.9389 -0.2364 -0.2500
vn 0.8214 0.5064 -0.2624
vn 0.8214 0.5064 0.2624
vn 0.9150 -0.3217 -0.2436
vn 0.9150 -0.3217 0.2436
vn 0.9139 -0.3248 0.2433
vn 0.9139 -0.3248 -0.2433
vn -0.0755 -0.0619 -0.9952
vn 0.0863 0.5390 -0.8379
vn 0.3685 0.5681 -0.7359
vn 0.3833 -0.0965 -0.9186
vn 0.1559 0.9734 -0.1681
vn 0.1559 0.9734 0.1681
vn 0.2463 0.9490 0.1967
vn 0.2463 0.9490 -0.1967
vn -0.0725 0.1041 -0.9919
vn 0.3831 -0.1036 -0.9179
vn 0.3363 -0.6602 -0.6716
vn -0.1411 -0.6273 -0.7659
vn -0.9043 0.0561 0.4233
vn -0.9043 0.0561 -0.4233
vn -0.8328 0.4545 -0.3160
vn -0.8328 0.4545 0.3160
vn -0.2217 0.0356 -0.9745
vn 0.3816 -0.1342 -0.9145
vn 0.3816 -0.1356 -0.9143
vn -0.2496 0.1237 -0.9604
vn 0.3816 -0.1342 0.9145
vn -0.2217 0.0356 0.9745
vn -0.2496 0.1237 0.9604
vn 0.3816 -0.1356 0.9143
vn -0.2175 -0.9672 0.1312
vn -0.2175 -0.9672 -0.1312
vn 0.1972 -0.9676 -0.1575
vn 0.1972 -0.9676 0.1575
vn 0.9350 -0.2528 -0.2489
vn 0.9350 -0.2528 0.2489
vn 0.7628 -0.5989 0.2437
vn 0.7628 -0.5989 -0.2437
vn 0.3831 -0.1036 0.9179
vn -0.0725 0.1041 0.9919
vn -0.1411 -0.6273 0.7659
vn 0.3363 -0.6602 0.6716
vn -0.4311 -0.8941 -0.1213
vn -0.4311 -0.8941 0.1213
vn -0.4630 -0.8783 0.1191
vn -0.4630 -0.8783 -0.1191
vn -0.2168 -0.6186 0.7552
vn 0.1873 0.1396 0.9723
vn -0.7157 0.1006 0.6912
vn -0.6632 -0.5247 0.5338
vn -0.2922 -0.6060 0.7398
vn 0.0666 0.3351 0.9398
vn 0.2901 0.4244 0.8577
vn -0.3168 -0.6010 0.7338
vn 0.0666 0.3351 -0.9398
vn -0.2922 -0.6060 -0.7398
vn -0.3168 -0.6010 -0.7338
vn 0.2901 0.4244 -0.8577
vn 0.0005 0.9458 0.3247
vn 0.0005 0.9458 -0.3247
vn 0.5934 0.7876 -0.1663
vn 0.5934 0.7876 0.1663
vn -0.9847 0.1384 0.1057
vn -0.9847 0.1384 -0.1057
vn -0.9463 -0.2994 -0.1219
vn -0.9463 -0.2994 0.1219
vn -0.3281 -0.9361 -0.1270
vn -0.3281 -0.9361 0.1270
vn -0.4465 -0.8831 0.1438
vn -0.4465 -0.8831 -0.1438
vn 0.1873 0.1396 -0.9723
vn -0.2168 -0.6186 -0.7552
vn -0.6632 -0.5247 -0.5338
vn -0.7157 0.1006 -0.6912
vn -0.7046 0.2013 0.6805
vn 0.4829 -0.0081 0.8757
vn 0.6675 -0.3725 0.6447
vn -0.6638 0.3853 0.6411
vn -0.5647 0.6193 0.5454
vn 0.5783 -0.5946 0.5585
vn 0.6346 -0.5800 0.5108
vn -0.4668 0.8006 0.3757
vn -0.9565 0.2732 -0.1026
vn -0.9565 0.2732 0.1026
vn -0.8648 0.4934 0.0928
vn -0.8658 0.4918 -0.0929
vn 0.4829 -0.0081 -0.8757
vn -0.7046 0.2013 -0.6805
vn -0.6675 0.3725 -0.6447
vn 0.6638 -0.3853 -0.6411
vn 0.9749 0.1156 0.1904
vn 0.9749 0.1156 -0.1904
vn 0.8648 -0.4934 -0.0928
vn 0.8658 -0.4918 0.0929
vn 0.8914 -0.3509 0.2870
vn 0.8826 -0.3745 -0.2841
vn -0.4095 0.9027 -0.1318
vn -0.4049 0.9050 0.1304
vn 0.6848 -0.7250 0.0735
vn 0.6823 -0.7274 -0.0732
vn 0.6457 -0.7591 -0.0831
vn 0.6496 -0.7557 0.0836
vn 0.5647 -0.6193 -0.5454
vn -0.5783 0.5946 -0.5585
vn -0.4805 0.7872 -0.3867
vn 0.6168 -0.6109 -0.4964
vn -0.6848 0.7250 -0.0735
vn -0.6823 0.7274 0.0732
vn -0.5622 0.8238 0.0724
vn -0.5654 0.8216 -0.0728
usemtl Material
s off
f 1//1 64//1 187//1 63//1
f 1//2 63//2 188//2 66//2
f 1//3 66//3 189//3 68//3
f 1//4 68//4 190//4 64//4
f 2//5 80//5 194//5 74//5
f 2//6 74//6 193//6 79//6
f 2//7 79//7 198//7 78//7
f 2//8 78//8 197//8 80//8
f 3//9 63//9 187//9 65//9
f 3//10 65//10 191//10 71//10
f 3//11 71//11 192//11 67//11
f 3//12 67//12 188//12 63//12
f 4//13 66//13 188//13 67//13
f 4//14 67//14 192//14 73//14
f 4//15 73//15 193//15 69//15
f 4//16 69//16 189//16 66//16
f 5//17 68//17 189//17 69//17
f 5//18 69//18 193//18 74//18
f 5//19 74//19 194//19 70//19
f 5//20 70//20 190//20 68//20
f 6//21 72//21 191//21 65//21
f 6//22 65//22 187//22 64//22
f 6//23 64//23 190//23 70//23
f 6//24 70//24 194//24 72//24
f 7//25 88//25 195//25 76//25
f 7//26 76//26 197//26 87//26
f 7//27 87//27 201//27 84//27
f 7//28 84//28 199//28 88//28
f 8//29 81//29 191//29 72//29
f 8//30 72//30 194//30 80//30
f 8//31 80//31 197//31 76//31
f 8//32 76//32 195//32 81//32
f 9//33 79//33 193//33 73//33
f 9//34 73//34 192//34 82//34
f 9//35 82//35 196//35 77//35
f 9//36 77//36 198//36 79//36
f 10//37 82//37 192//37 71//37
f 10//38 71//38 191//38 81//38
f 10//39 81//39 195//39 75//39
f 10//40 75//40 196//40 82//40
f 11//41 96//41 202//41 85//41
f 11//42 85//42 200//42 95//42
f 11//43 95//43 204//43 93//43
f 11//44 93//44 206//44 96//44
f 12//45 90//45 198//45 77//45
f 12//46 77//46 196//46 89//46
f 12//47 89//47 200//47 85//47
f 12//48 85//48 202//48 90//48
f 13//49 89//49 196//49 75//49
f 13//50 75//50 195//50 88//50
f 13//51 88//51 199//51 83//51
f 13//52 83//52 200//52 89//52
f 14//53 87//53 197//53 78//53
f 14//54 78//54 198//54 90//54
f 14//55 90//55 202//55 86//55
f 14//56 86//56 201//56 87//56
f 15//57 104//57 205//57 94//57
f 15//58 94//58 206//58 103//58
f 15//59 103//59 210//59 102//59
f 15//60 102//60 209//60 104//60
f 16//61 95//61 200//61 83//61
f 16//62 83//62 199//62 97//62
f 16//63 97//63 203//63 91//63
f 16//64 91//64 204//64 95//64
f 17//65 98//65 201//65 86//65
f 17//66 86//66 202//66 96//66
f 17//67 96//67 206//67 94//67
f 17//68 94//68 205//68 98//68
f 18//69 97//69 199//69 84//69
f 18//70 84//70 201//70 98//70
f 18//71 98//71 205//71 92//71
f 18//72 92//72 203//72 97//72
f 19//73 112//73 210//73 101//73
f 19//74 101//74 208//74 111//74
f 19//75 111//75 212//75 109//75
f 19//76 109//76 214//76 112//76
f 20//77 105//77 203//77 92//77
f 20//78 92//78 205//78 104//78
f 20//79 104//79 209//79 100//79
f 20//80 100//80 207//80 105//80
f 21//81 103//81 206//81 93//81
f 21//82 93//82 204//82 106//82
f 21//83 106//83 208//83 101//83
f 21//84 101//84 210//84 103//84
f 22//85 106//85 204//85 91//85
f 22//86 91//86 203//86 105//86
f 22//87 105//87 207//87 99//87
f 22//88 99//88 208//88 106//88
f 23//89 120//89 214//89 109//89
f 23//90 109//90 212//90 119//90
f 23//91 119//91 216//91 117//91
f 23//92 117//92 218//92 120//92
f 24//93 111//93 208//93 99//93
f 24//94 99//94 207//94 113//94
f 24//95 113//95 211//95 107//95
f 24//96 107//96 212//96 111//96
f 25//97 114//97 209//97 102//97
f 25//98 102//98 210//98 112//98
f 25//99 112//99 214//99 110//99
f 25//100 110//100 213//100 114//100
f 26//101 113//101 207//101 100//101
f 26//102 100//102 209//102 114//102
f 26//103 114//103 213//103 108//103
f 26//104 108//104 211//104 113//104
f 27//105 115//105 215//105 116//105
f 27//106 116//106 217//106 118//106
f 27//107 118//107 218//107 117//107
f 27//108 117//108 216//108 115//108
f 28//109 128//109 212//109 107//109
f 28//110 107//110 211//110 127//110
f 28//111 127//111 219//111 123//111
f 28//112 123//112 220//112 128//112
f 29//113 122//113 213//113 110//113
f 29//114 110//114 214//114 120//114
f 29//115 120//115 218//115 118//115
f 29//116 118//116 217//116 122//116
f 30//117 121//117 211//117 108//117
f 30//118 108//118 213//118 122//118
f 30//119 122//119 217//119 116//119
f 30//120 116//120 215//120 121//120
f 31//121 136//121 222//121 125//121
f 31//122 125//122 220//122 135//122
f 31//123 135//123 224//123 133//123
f 31//124 133//124 226//124 136//124
f 32//125 127//125 211//125 121//125
f 32//126 121//126 215//126 129//126
f 32//127 129//127 221//127 126//127
f 32//128 126//128 219//128 127//128
f 33//129 130//129 216//129 119//129
f 33//130 119//130 212//130 128//130
f 33//131 128//131 220//131 125//131
f 33//132 125//132 222//132 130//132
f 34//133 129//133 215//133 115//133
f 34//134 115//134 216//134 130//134
f 34//135 130//135 222//135 124//135
f 34//136 124//136 221//136 129//136
f 35//137 133//137 224//137 131//137
f 35//138 131//138 223//138 134//138
f 35//139 134//139 225//139 132//139
f 35//140 132//140 226//140 133//140
f 36//141 144//141 223//141 131//141
f 36//142 131//142 224//142 143//142
f 36//143 143//143 230//143 140//143
f 36//144 140//144 229//144 144//144
f 37//145 137//145 219//145 126//145
f 37//146 126//146 221//146 138//146
f 37//147 138//147 225//147 134//147
f 37//148 134//148 223//148 137//148
f 38//149 138//149 221//149 124//149
f 38//150 124//150 222//150 136//150
f 38//151 136//151 226//151 132//151
f 38//152 132//152 225//152 138//152
f 39//153 152//153 227//153 142//153
f 39//154 142//154 229//154 151//154
f 39//155 151//155 233//155 150//155
f 39//156 150//156 231//156 152//156
f 40//157 146//157 220//157 123//157
f 40//158 123//158 219//158 145//158
f 40//159 145//159 227//159 139//159
f 40//160 139//160 228//160 146//160
f 41//161 145//161 219//161 137//161
f 41//162 137//162 223//162 144//162
f 41//163 144//163 229//163 142//163
f 41//164 142//164 227//164 145//164
f 42//165 143//165 224//165 135//165
f 42//166 135//166 220//166 146//166
f 42//167 146//167 228//167 141//167
f 42//168 141//168 230//168 143//168
f 43//169 149//169 232//169 147//169
f 43//170 147//170 231//170 150//170
f 43//171 150//171 233//171 148//171
f 43//172 148//172 234//172 149//172
f 44//173 151//173 229//173 140//173
f 44//174 140//174 230//174 153//174
f 44//175 153//175 234//175 148//175
f 44//176 148//176 233//176 151//176
f 45//177 153//177 230//177 141//177
f 45//178 141//178 228//178 154//178
f 45//179 154//179 232//179 149//179
f 45//180 149//180 234//180 153//180
f 46//181 160//181 231//181 147//181
f 46//182 147//182 232//182 159//182
f 46//183 159//183 238//183 156//183
f 46//184 156//184 237//184 160//184
f 47//185 168//185 238//185 158//185
f 47//186 158//186 236//186 167//186
f 47//187 167//187 240//187 166//187
f 47//188 166//188 242//188 168//188
f 48//189 159//189 232//189 154//189
f 48//190 154//190 228//190 161//190
f 48//191 161//191 236//191 158//191
f 48//192 158//192 238//192 159//192
f 49//193 162//193 227//193 152//193
f 49//194 152//194 231//194 160//194
f 49//195 160//195 237//195 157//195
f 49//196 157//196 235//196 162//196
f 50//197 161//197 228//197 139//197
f 50//198 139//198 227//198 162//198
f 50//199 162//199 235//199 155//199
f 50//200 155//200 236//200 161//200
f 51//201 166//201 240//201 163//201
f 51//202 163//202 239//202 165//202
f 51//203 165//203 241//203 164//203
f 51//204 164//204 242//204 166//204
f 52//205 169//205 237//205 156//205
f 52//206 156//206 238//206 168//206
f 52//207 168//207 242//207 164//207
f 52//208 164//208 241//208 169//208
f 53//209 170//209 235//209 157//209
f 53//210 157//210 237//210 169//210
f 53//211 169//211 241//211 165//211
f 53//212 165//212 239//212 170//212
f 54//213 176//213 240//213 167//213
f 54//214 167//214 236//214 175//214
f 54//215 175//215 244//215 173//215
f 54//216 173//216 246//216 176//216
f 55//217 184//217 246//217 173//217
f 55//218 173//218 244//218 183//218
f 55//219 183//219 248//219 181//219
f 55//220 181//220 250//220 184//220
f 56//221 177//221 239//221 163//221
f 56//222 163//222 240//222 176//222
f 56//223 176//223 246//223 172//223
f 56//224 172//224 245//224 177//224
f 57//225 178//225 235//225 170//225
f 57//226 170//226 239//226 177//226
f 57//227 177//227 245//227 174//227
f 57//228 174//228 243//228 178//228
f 58//229 175//229 236//229 155//229
f 58//230 155//230 235//230 178//230
f 58//231 178//231 243//231 171//231
f 58//232 171//232 244//232 175//232
f 59//233 181//233 248//233 179//233
f 59//234 179//234 247//234 182//234
f 59//235 182//235 249//235 180//235
f 59//236 180//236 250//236 181//236
f 60//237 183//237 244//237 171//237
f 60//238 171//238 243//238 185//238
f 60//239 185//239 247//239 179//239
f 60//240 179//240 248//240 183//240
f 61//241 185//241 243//241 174//241
f 61//242 174//242 245//242 186//242
f 61//243 186//243 249//243 182//243
f 61//244 182//244 247//244 185//244
f 62//245 186//245 245//245 172//245
f 62//246 172//246 246//246 184//246
f 62//247 184//247 250//247 180//247
f 62//248 180//248 249//248 186//248
